<svg width="178" height="227" viewBox="0 0 178 227" fill="none" xmlns="http://www.w3.org/2000/svg">
<path fill-rule="evenodd" clip-rule="evenodd" d="M89 0.299988C137.8 0.299988 177.3 39.8 177.3 88.6C177.3 137.3 137.8 176.8 89 176.8C40.3 176.8 0.799988 137.3 0.799988 88.6C0.799988 39.7 40.2 0.299988 89 0.299988Z" fill="#56B947"/>
<path fill-rule="evenodd" clip-rule="evenodd" d="M106.3 62.2C108.6 63.3 110.9 64.6 112.9 66.2L118.8 60.3C120.1 59 122.4 59 123.7 60.3L129.6 66.2C130.9 67.5 130.9 69.8 129.6 71.1C128.3 72.4 126.2 72.4 124.8 71.1L121.2 67.5L117.6 70.9C121.5 75.7 124.2 81.9 125.1 89.5L126.1 88.5C127.4 87.2 129.5 87.2 130.9 88.5L136.9 94.4C138.2 95.7 138.2 97.8 136.9 99.2C135.6 100.5 133.3 100.5 132.1 99.2L128.5 95.8L125.3 98.9C125 105 123.6 110.8 121.5 115.9L125.7 116C127.6 116 129.1 117.6 129.1 119.3L129 127.8C129 129.7 127.4 131.1 125.6 131.1C123.8 131.1 122.3 129.5 122.3 127.8V122.8L118.2 122.7C111.5 133.7 101 140.8 89 140.8C77.1 140.8 66.5 133.7 59.9 122.7L55.8 122.8V127.8C55.8 129.6 54.2 131.1 52.5 131.1C50.6 131.1 49.1 129.7 49.1 127.8L49 119.3C49 117.5 50.6 116 52.4 116L56.6 115.9C54.5 110.8 53.2 105 52.8 98.9L49.6 95.8L46 99.2C44.8 100.5 42.6 100.5 41.2 99.2C39.9 97.9 39.9 95.8 41.2 94.4L47.2 88.5C48.5 87.2 50.6 87.2 52 88.5L53 89.5C53.9 81.9 56.6 75.7 60.5 70.9L56.9 67.5L53.3 71.1C52 72.4 49.9 72.4 48.5 71.1C47.2 69.8 47.2 67.5 48.5 66.2L54.4 60.3C55.7 59 58 59 59.2 60.3L65.2 66.2C67.2 64.6 69.4 63.3 71.8 62.2C71.7 61.6 71.6 61 71.6 60.3C71.6 54.4 74.6 47.5 80.2 44L77.3 41.1L75.2 43.2C74.4 44 73.2 44 72.4 43.2C71.5 42.4 71.5 41.1 72.4 40.3L75.8 36.9C76.6 36.1 77.9 36.1 78.7 36.9L84 42.2C85.6 41.6 87.2 41.4 89 41.4C90.9 41.4 92.6 41.6 94.1 42.2L99.4 36.9C100.2 36.1 101.5 36.1 102.3 36.9L105.7 40.3C106.6 41.1 106.6 42.4 105.7 43.2C104.9 44 103.7 44 102.9 43.2L100.8 41.1L98 44C103.6 47.6 106.6 54.5 106.6 60.3C106.5 61 106.4 61.7 106.3 62.2Z" fill="#E8E85F"/>
<path d="M61.2 206.6H69.1C70.7 206.6 71.8 206.7 72.5 206.8C73.3 206.9 73.9 207.1 74.6 207.6C75.2 208 75.7 208.6 76 209.3C76.4 210 76.7 210.7 76.7 211.5C76.7 212.5 76.5 213.3 75.9 214.1C75.5 214.9 74.8 215.4 73.9 215.9C75.1 216.2 76 216.8 76.7 217.7C77.4 218.5 77.6 219.5 77.6 220.6C77.6 221.6 77.5 222.4 77 223.3C76.6 224.2 76 224.9 75.3 225.3C74.5 225.9 73.6 226.1 72.6 226.3C71.9 226.3 70.3 226.4 67.8 226.4H61V206.6H61.2ZM65.2 209.8V214.4H67.8C69.4 214.4 70.4 214.4 70.7 214.4C71.4 214.3 71.9 214.1 72.4 213.6C72.7 213.3 73 212.7 73 212.2C73 211.5 72.9 211.1 72.6 210.6C72.2 210.3 71.7 210 71 209.9C70.7 209.9 69.4 209.8 67.7 209.8H65.2ZM65.2 217.7V222.9H68.9C70.3 222.9 71.2 222.9 71.7 222.8C72.3 222.7 72.7 222.5 73.1 222C73.4 221.6 73.7 221 73.7 220.3C73.7 219.6 73.5 219.2 73.3 218.7C73 218.4 72.5 218 72.1 217.8C71.5 217.7 70.3 217.6 68.5 217.6H65.2V217.7ZM80.9 206.6H84.9V217.3C84.9 219 84.9 220.1 85 220.5C85.2 221.3 85.7 221.9 86.2 222.5C86.9 222.9 87.8 223.2 88.9 223.2C90 223.2 90.9 223 91.5 222.5C92.1 222.1 92.4 221.5 92.5 220.8C92.6 220.1 92.7 219 92.7 217.5V206.6H96.6V216.9C96.6 219.2 96.5 220.9 96.3 221.9C96.1 222.9 95.7 223.7 95.2 224.3C94.6 225 93.9 225.5 92.9 225.9C91.9 226.3 90.7 226.6 89.1 226.6C87.2 226.6 85.8 226.4 84.9 225.9C83.9 225.5 83.1 224.9 82.6 224.2C82 223.4 81.6 222.8 81.5 222C81.3 220.9 81.1 219.2 81.1 217V206.6H80.9ZM110 219V215.7H118.6V223.5C117.8 224.4 116.6 225.1 115 225.6C113.3 226.3 111.8 226.6 110.1 226.6C108.1 226.6 106.3 226.2 104.8 225.3C103.2 224.4 102.1 223.2 101.4 221.6C100.6 219.9 100.3 218.3 100.3 216.4C100.3 214.3 100.7 212.5 101.5 211C102.4 209.3 103.6 208.1 105.3 207.3C106.6 206.6 108.2 206.3 110.1 206.3C112.4 206.3 114.4 206.9 115.8 207.9C117.1 208.9 118 210.3 118.5 212.1L114.5 212.9C114.3 211.9 113.7 211.1 112.9 210.6C112.1 210.1 111.2 209.7 110.1 209.7C108.3 209.7 107 210.3 105.9 211.4C104.9 212.5 104.5 214.2 104.5 216.3C104.5 218.6 104.9 220.4 106.1 221.6C107.1 222.7 108.4 223.3 110.1 223.3C111 223.3 111.8 223.2 112.7 222.9C113.5 222.6 114.3 222.1 114.8 221.7V219H110Z" fill="#414042"/>
</svg>
