<svg width="178" height="227" viewBox="0 0 178 227" fill="none" xmlns="http://www.w3.org/2000/svg">
<path fill-rule="evenodd" clip-rule="evenodd" d="M89.2 0.299988C137.9 0.299988 177.4 39.8 177.4 88.6C177.4 137.3 137.9 176.8 89.2 176.8C40.4 176.8 0.900024 137.3 0.900024 88.6C0.900024 39.7 40.4 0.299988 89.2 0.299988Z" fill="#C03995"/>
<path fill-rule="evenodd" clip-rule="evenodd" d="M89.2 20.4C100 20.4 110.3 23 119.4 27.5C115.5 26.4 111.5 25.8 107.3 25.8C81.7 25.8 61 46.6 61 72.2C61 97.8 81.7 118.5 107.3 118.5C132.9 118.5 153.7 97.8 153.7 72.2C153.7 69.8 153.5 67.3 153.1 65C155.8 72.3 157.2 80.2 157.2 88.6C157.2 126.2 126.7 156.7 89.1 156.7C51.4 156.7 20.9 126.2 20.9 88.6C21 50.9 51.5 20.4 89.2 20.4Z" fill="#F3B81A"/>
<path d="M52.2 206.6H59.4C61.1 206.6 62.3 206.7 63.2 206.9C64.3 207.2 65.3 207.9 66.1 208.8C67 209.6 67.5 210.7 68 211.9C68.4 213.2 68.7 214.7 68.7 216.6C68.7 218.3 68.5 219.6 68.1 220.8C67.5 222.2 66.9 223.4 66 224.2C65.3 224.9 64.3 225.4 63.2 225.8C62.3 226 61.1 226.2 59.6 226.2H52.1V206.6H52.2ZM56.2 209.9V222.9H59.1C60.2 222.9 61 222.8 61.5 222.7C62.2 222.6 62.6 222.3 63.1 221.9C63.5 221.5 63.9 220.9 64.2 220C64.4 219.1 64.5 217.9 64.5 216.3C64.5 214.9 64.4 213.6 64.2 212.9C63.9 212.1 63.5 211.5 63 211C62.6 210.6 62 210.2 61.2 210.1C60.6 209.9 59.5 209.9 58 209.9H56.2ZM89.8 226.2H85.5L83.7 221.8H75.9L74.2 226.2H70L77.7 206.5H81.9L89.8 226.2ZM82.4 218.5L79.7 211.2L77 218.5H82.4ZM91.9 226.2V206.5H100.2C102.3 206.5 103.9 206.7 104.8 207.1C105.8 207.4 106.5 208.1 107.1 209C107.7 209.9 107.9 210.9 107.9 212.1C107.9 213.5 107.5 214.8 106.7 215.7C105.8 216.7 104.5 217.3 102.8 217.6C103.6 218 104.4 218.6 104.9 219.3C105.5 219.9 106.2 220.9 107.1 222.4L109.5 226.3H104.7L101.8 222C100.8 220.4 100.1 219.6 99.7 219.1C99.4 218.8 98.9 218.4 98.6 218.3C98.2 218.2 97.5 218.1 96.6 218.1H95.7V226.3H91.9V226.2ZM95.8 214.9H98.8C100.7 214.9 101.9 214.8 102.4 214.7C102.8 214.5 103.3 214.3 103.5 213.8C103.7 213.5 103.9 212.9 103.9 212.4C103.9 211.7 103.7 211.2 103.3 210.7C103 210.4 102.4 210 101.7 209.9C101.4 209.9 100.5 209.9 98.8 209.9H95.7V214.9H95.8ZM111.7 226.2V206.5H115.7V215.2L123.7 206.5H129L121.7 214.2L129.5 226.2H124.4L119 217L115.8 220.2V226.2H111.7Z" fill="#414042"/>
</svg>
