<svg width="178" height="228" viewBox="0 0 178 228" fill="none" xmlns="http://www.w3.org/2000/svg">
<path fill-rule="evenodd" clip-rule="evenodd" d="M89 0.899994C137.8 0.899994 177.3 40.4 177.3 89.1C177.3 137.8 137.8 177.3 89 177.3C40.3 177.3 0.799988 137.8 0.799988 89.1C0.799988 40.4 40.2 0.899994 89 0.899994Z" fill="#56B947"/>
<path fill-rule="evenodd" clip-rule="evenodd" d="M68.7 30.4C113.9 4.2 169.5 42.9 156.7 99.2C143 158.8 84.6 166.3 38.7 146.1C28.2 141.5 28.7 132.8 37.3 126.1C82.3 91.4 86.7 70.9 89.6 70.6C93.6 70.2 88.4 102.7 97.5 105.6C107.4 108.6 124.6 90.1 124.2 66.7C123.9 43.2 99.8 29.4 68.9 34.7C61.2 35.9 61.7 34.4 68.7 30.4ZM85.6 113.7C79.8 118.8 80.4 118.6 69.3 128.8C63.1 134.5 61.2 135.7 62.4 136C65.2 136.9 88.8 136.2 84.2 119.2C84 118.4 85.9 115.4 86.5 113.9C87.1 112.3 86.3 113 85.6 113.7Z" fill="#E8E85F"/>
<path d="M30.7 207.1H37.9C39.6 207.1 40.8 207.3 41.7 207.5C42.8 207.8 43.8 208.4 44.6 209.3C45.5 210.2 46 211.2 46.5 212.5C46.9 213.7 47.2 215.3 47.2 217.1C47.2 218.8 47 220.2 46.6 221.3C46 222.7 45.4 223.9 44.5 224.7C43.7 225.4 42.8 225.9 41.7 226.3C40.8 226.6 39.6 226.7 38.1 226.7H30.6V207.1H30.7ZM34.6 210.4V223.4H37.6C38.7 223.4 39.5 223.4 40 223.3C40.6 223.1 41.1 222.9 41.6 222.4C42 222.1 42.4 221.4 42.6 220.5C42.9 219.6 43 218.5 43 216.9C43 215.3 42.9 214.2 42.6 213.3C42.4 212.5 42 211.9 41.5 211.4C41.1 211 40.4 210.6 39.7 210.5C39.1 210.4 38 210.3 36.4 210.3H34.6V210.4ZM50.5 226.8V207.1H58.8C60.9 207.1 62.5 207.3 63.5 207.7C64.4 208 65.2 208.7 65.7 209.6C66.3 210.5 66.6 211.6 66.6 212.7C66.6 214.1 66.2 215.4 65.3 216.4C64.4 217.3 63.2 218 61.4 218.2C62.3 218.8 63 219.3 63.5 219.9C64.1 220.5 64.8 221.6 65.8 223.1L68.1 226.9H63.4L60.5 222.7C59.5 221.1 58.7 220.1 58.4 219.8C58.1 219.4 57.6 219.1 57.2 218.9C56.8 218.8 56.1 218.7 55.2 218.7H54.4V226.9H50.5V226.8ZM54.5 215.4H57.4C59.4 215.4 60.5 215.3 61.1 215.2C61.5 215.1 61.9 214.8 62.2 214.4C62.4 214 62.5 213.5 62.5 212.8C62.5 212.1 62.4 211.7 61.9 211.2C61.6 210.8 61.1 210.5 60.5 210.4C60.2 210.4 59.2 210.3 57.6 210.3H54.5V215.4ZM88.1 226.8H83.8L82.1 222.4H74.2L72.5 226.8H68.4L76 207.1H80.2L88.1 226.8ZM80.7 219L78 211.8L75.3 219H80.7ZM99.3 219.5V216.2H107.9V224.1C107.1 224.9 105.9 225.5 104.3 226.2C102.6 226.8 101.1 227.1 99.4 227.1C97.4 227.1 95.6 226.7 94.1 225.9C92.5 225 91.4 223.8 90.7 222.1C89.9 220.5 89.6 218.8 89.6 216.9C89.6 214.9 90 213 90.8 211.5C91.7 209.9 92.9 208.7 94.6 207.8C95.9 207.1 97.5 206.8 99.4 206.8C101.7 206.8 103.7 207.4 105.1 208.4C106.4 209.4 107.3 210.8 107.8 212.6L103.8 213.4C103.6 212.4 103 211.6 102.2 211.1C101.4 210.5 100.5 210.3 99.4 210.3C97.6 210.3 96.3 210.9 95.2 212C94.2 213.1 93.8 214.7 93.8 216.9C93.8 219.2 94.2 220.9 95.4 222.1C96.4 223.2 97.7 223.9 99.4 223.9C100.3 223.9 101.1 223.7 102 223.3C102.8 223 103.6 222.6 104.1 222.2V219.6H99.3V219.5ZM110.8 217.1C110.8 215.1 111 213.4 111.7 212.1C112.1 211.1 112.7 210.1 113.5 209.3C114.3 208.5 115.2 208 116.1 207.5C117.3 207.1 118.8 206.7 120.3 206.7C123.2 206.7 125.5 207.6 127.3 209.5C129 211.3 129.9 213.7 129.9 217C129.9 220.2 129 222.7 127.3 224.5C125.5 226.3 123.3 227.2 120.4 227.2C117.4 227.2 115.1 226.3 113.4 224.5C111.5 222.7 110.8 220.2 110.8 217.1ZM114.8 217C114.8 219.2 115.4 220.9 116.4 222C117.5 223.2 118.7 223.8 120.4 223.8C122 223.8 123.2 223.2 124.3 222C125.3 220.9 125.7 219.2 125.7 216.9C125.7 214.7 125.3 213 124.3 211.9C123.3 210.8 122 210.2 120.4 210.2C118.7 210.2 117.4 210.8 116.4 211.9C115.3 213 114.8 214.6 114.8 217ZM132.9 226.8V207.1H136.8L144.8 220.2V207.1H148.6V226.8H144.6L136.7 214V226.8H132.9Z" fill="#414042"/>
</svg>
