<svg width="177" height="228" viewBox="0 0 177 228" fill="none" xmlns="http://www.w3.org/2000/svg">
<path fill-rule="evenodd" clip-rule="evenodd" d="M88.4 0.899994C137.2 0.899994 176.7 40.4 176.7 89.1C176.7 137.8 137.2 177.3 88.4 177.3C39.7 177.3 0.200012 137.8 0.200012 89.1C0.200012 40.4 39.7 0.899994 88.4 0.899994Z" fill="#F3B81A"/>
<path fill-rule="evenodd" clip-rule="evenodd" d="M37.1 115.1L95.7 24.5C99.6 18.4 100.5 17.6 98.5 25.2L84.3 78.5L138.8 59.8C141.1 58.9 141.1 61.4 140 63.1L81.4 153.7C77.5 159.8 76.6 160.6 78.6 153L92.8 99.7L38.3 118.4C35.9 119.3 35.9 116.9 37.1 115.1Z" fill="white"/>
<path d="M22.5 226.8V207.1H37.1V210.4H26.5V214.8H36.4V218H26.5V223.3H37.5V226.6H22.5V226.8ZM40.9 226.8V207.3H44.9V223.4H54.7V226.7H40.9V226.8ZM57.6 226.8V207.1H72.2V210.4H61.5V214.8H71.4V218H61.5V223.3H72.5V226.6H57.6V226.8ZM88.5 219.5L92.3 220.7C91.7 222.8 90.7 224.5 89.4 225.5C88 226.5 86.3 227.1 84.2 227.1C81.5 227.1 79.4 226.2 77.7 224.4C76 222.6 75.1 220.2 75.1 217.1C75.1 213.9 76 211.3 77.7 209.5C79.4 207.7 81.6 206.7 84.4 206.7C86.7 206.7 88.7 207.5 90.3 208.9C91.2 209.7 91.9 210.9 92.3 212.5L88.3 213.5C88.1 212.4 87.6 211.6 86.9 211.1C86.2 210.5 85.3 210.2 84.2 210.2C82.8 210.2 81.5 210.8 80.6 211.8C79.7 212.8 79.3 214.6 79.3 216.9C79.3 219.3 79.7 221.1 80.6 222.1C81.5 223.2 82.6 223.8 84 223.8C85.1 223.8 86 223.5 86.8 222.8C87.7 222.1 88.2 221 88.5 219.5ZM100.2 226.8V210.5H94.3V207.2H110V210.5H104.1V226.8H100.2ZM112.6 226.8V207.1H120.9C123 207.1 124.5 207.3 125.5 207.7C126.5 208 127.2 208.7 127.8 209.6C128.4 210.5 128.6 211.6 128.6 212.7C128.6 214.1 128.2 215.4 127.4 216.4C126.5 217.3 125.2 218 123.5 218.2C124.3 218.8 125.1 219.3 125.6 219.9C126.2 220.5 126.9 221.6 127.8 223.1L130.2 226.9H125.4L122.5 222.7C121.5 221.1 120.8 220.1 120.4 219.8C120.1 219.4 119.6 219.1 119.3 218.9C118.9 218.8 118.2 218.7 117.3 218.7H116.4V226.9H112.6V226.8ZM116.5 215.4H119.5C121.4 215.4 122.6 215.3 123.1 215.2C123.6 215.1 123.9 214.8 124.2 214.4C124.4 214 124.6 213.5 124.6 212.8C124.6 212.1 124.4 211.7 124 211.2C123.7 210.8 123.1 210.5 122.4 210.4C122.1 210.4 121.2 210.3 119.5 210.3H116.4V215.4H116.5ZM132.2 226.8V207.1H136.2V226.8H132.2ZM152.6 219.5L156.4 220.7C155.8 222.8 154.8 224.5 153.5 225.5C152.1 226.5 150.4 227.1 148.3 227.1C145.6 227.1 143.5 226.2 141.8 224.4C140.1 222.6 139.2 220.2 139.2 217.1C139.2 213.9 140.1 211.3 141.8 209.5C143.5 207.7 145.7 206.7 148.5 206.7C150.9 206.7 152.8 207.5 154.4 208.9C155.3 209.7 156 210.9 156.4 212.5L152.4 213.5C152.2 212.4 151.7 211.6 151 211.1C150.3 210.5 149.4 210.2 148.3 210.2C146.9 210.2 145.6 210.8 144.7 211.8C143.8 212.8 143.4 214.6 143.4 216.9C143.4 219.3 143.8 221.1 144.7 222.1C145.6 223.2 146.8 223.8 148.1 223.8C149.2 223.8 150.1 223.5 150.9 222.8C151.7 222.1 152.3 221 152.6 219.5Z" fill="#414042"/>
</svg>
