<svg width="177" height="226" viewBox="0 0 177 226" fill="none" xmlns="http://www.w3.org/2000/svg">
<path fill-rule="evenodd" clip-rule="evenodd" d="M88.2 0C136.9 0 176.5 39.5 176.5 88.3C176.5 137 136.9 176.5 88.2 176.5C39.5 176.5 0 137 0 88.3C0 39.4 39.5 0 88.2 0Z" fill="#F6E294"/>
<path fill-rule="evenodd" clip-rule="evenodd" d="M37.8001 41.8C36.0001 46.6 62.6 78.7 62.4 91.6C62.3 97.8 32 108.2 39.5 110.3C44.4 111.7 62.1 109 61 113.6C59.8 118.3 47.8 136.4 51.4 135.3C58.7 133 75.3 122.1 84.5 108.4C87.6 103.7 88.7 103.6 92 108.4C101.1 122.2 117.7 133 125.1 135.3C128.7 136.4 116.6 118.3 115.5 113.6C114.3 108.9 132.1 111.7 137 110.3C144.5 108.2 114.2 97.8 114.1 91.6C113.8 78.7 140.5 46.6 138.6 41.8C136.9 37.4 108.4 56.5 93.4 71.9C88.4 77 87.5 76.6 83.1 71.9C68.2 56.5 39.5001 37.3 37.8001 41.8Z" fill="#1FAFDF"/>
<path d="M51 225.9V206.2H64.5V209.5H54.9V214.2H63.1V217.5H54.9V225.8H51V225.9ZM84 225.9H79.7L78 221.5H70.1L68.5 225.9H64.3L72 206.2H76.1L84 225.9ZM76.6 218.2L73.9 210.9L71.2 218.2H76.6ZM86 225.9V206.2H90V225.9H86ZM93.8 225.9V206.2H102.1C104.2 206.2 105.7 206.4 106.7 206.8C107.7 207.1 108.4 207.8 109 208.7C109.6 209.6 109.8 210.6 109.8 211.8C109.8 213.2 109.4 214.5 108.6 215.4C107.7 216.4 106.4 217 104.7 217.3C105.5 217.7 106.3 218.3 106.8 219C107.4 219.6 108 220.6 109 222.1L111.4 226H106.6L103.7 221.7C102.7 220.1 102 219.3 101.6 218.8C101.3 218.5 100.8 218.1 100.5 218C100.1 217.9 99.4 217.8 98.5 217.8H97.6V226H93.8V225.9ZM97.6 214.6H100.6C102.5 214.6 103.7 214.5 104.2 214.4C104.6 214.2 105 214 105.3 213.5C105.5 213.2 105.6 212.6 105.6 212.1C105.6 211.4 105.5 210.9 105.2 210.4C104.9 210.1 104.3 209.7 103.6 209.6C103.3 209.6 102.4 209.6 100.7 209.6H97.6V214.6V214.6ZM117.7 225.9V217.6L110.5 206.3H115.2L119.9 214.1L124.5 206.3H129.1L121.9 217.8V226H117.7V225.9Z" fill="#414042"/>
</svg>
