<svg width="177" height="227" viewBox="0 0 177 227" fill="none" xmlns="http://www.w3.org/2000/svg">
<path fill-rule="evenodd" clip-rule="evenodd" d="M88.7 0.299988C137.5 0.299988 177 39.8 177 88.6C177 137.3 137.5 176.8 88.7 176.8C40 176.8 0.5 137.3 0.5 88.6C0.5 39.7 40 0.299988 88.7 0.299988Z" fill="#B92025"/>
<path fill-rule="evenodd" clip-rule="evenodd" d="M51.3999 33.1C57.1999 33.1 62 37.9 62 43.8V64.8C62 70.6 57.1999 75.4 51.3999 75.4C45.4999 75.4 40.7 70.6 40.7 64.8V43.8C40.8 37.9 45.4999 33.1 51.3999 33.1ZM104.7 126.7C109.5 126.7 113.4 130.6 113.4 135.4V142.4C113.4 147.2 109.4 151.2 104.7 151.2H75.1C70.3 151.2 66.3999 147.2 66.3999 142.4V135.4C66.3999 130.6 70.3 126.7 75.1 126.7H104.7ZM128 80C132.8 80 136.8 83.9 136.8 88.7V113.5C136.8 118.3 132.8 122.3 128 122.3C114.2 122.3 100.3 122.3 86.5 122.3C81.9 122.3 78.3 118.5 78.3 114C78.3 109.6 82 105.8 86.5 105.8H97V88.8C97 84 100.9 80.1 105.7 80.1H128V80ZM49.5 80C44.7 80 40.7 83.9 40.7 88.7V113.5C40.7 118.3 44.7 122.3 49.5 122.3H65C69.8 122.3 73.7 118.3 73.7 113.5V101.3H81.8999C87.7999 101.3 92.6 96.5 92.6 90.6C92.6 84.8 87.7999 80 81.8999 80C71.0999 80 60.3 80 49.5 80ZM127.3 37.7C132.4 37.7 136.8 41.9 136.8 47.2V65.9C136.8 71.1 132.5 75.4 127.3 75.4C122.1 75.4 117.8 71.2 117.8 65.9V47.2C117.8 42 122.1 37.7 127.3 37.7ZM77.1 26C82.9 26 87.7 30.8 87.7 36.6V64.8C87.7 70.6 82.9 75.4 77.1 75.4C71.2 75.4 66.3999 70.6 66.3999 64.8V36.6C66.4999 30.7 71.2 26 77.1 26ZM102.7 33.1C108.6 33.1 113.4 37.9 113.4 43.8V64.8C113.4 70.6 108.6 75.4 102.7 75.4C96.9 75.4 92.1 70.6 92.1 64.8V43.8C92.1 37.9 96.9 33.1 102.7 33.1Z" fill="#E8E85F"/>
<path d="M25.2 226.2V206.5H38.8V209.8H29.2V214.5H37.4V217.8H29.2V226.1H25.2V226.2ZM41.9 226.2V206.5H45.8999V226.2H41.9ZM58.8 219V215.7H67.3999V223.5C66.4999 224.4 65.4 225.1 63.7 225.6C62.1 226.3 60.5999 226.6 58.8999 226.6C56.8999 226.6 55.1 226.2 53.6 225.3C52 224.4 50.9 223.2 50.2 221.6C49.4 219.9 49.1 218.3 49.1 216.4C49.1 214.3 49.4 212.5 50.3 211C51.2 209.3 52.4 208.1 54.1 207.3C55.3 206.6 56.9 206.3 58.8 206.3C61.2 206.3 63.1 206.9 64.6 207.9C65.9 208.9 66.8 210.3 67.3 212.1L63.3 212.9C63.1 211.9 62.5 211.1 61.7 210.6C60.9 210 60 209.7 58.8 209.7C57.1 209.7 55.7 210.3 54.7 211.4C53.7 212.5 53.1 214.2 53.1 216.3C53.1 218.6 53.7 220.4 54.7 221.6C55.8 222.7 57.1 223.3 58.8 223.3C59.6 223.3 60.5 223.2 61.2 222.9C62.1 222.6 62.7999 222.1 63.3999 221.7V219H58.8ZM71 226.2V206.5H75V214.3H82.8V206.5H86.7V226.2H82.8V217.5H75V226.2H71ZM95.3 226.2V209.9H89.3999V206.6H105V209.9H99.2V226.2H95.3ZM107.5 226.2V206.5H111.5V226.2H107.5ZM115.3 226.2V206.5H119.2L127.2 219.6V206.5H130.9V226.2H126.9L119 213.3V226.2H115.3ZM144.2 219V215.7H152.8V223.5C152 224.4 150.8 225.1 149.2 225.6C147.5 226.3 146 226.6 144.3 226.6C142.3 226.6 140.5 226.2 139 225.3C137.4 224.4 136.3 223.2 135.6 221.6C134.8 219.9 134.5 218.3 134.5 216.4C134.5 214.3 134.9 212.5 135.7 211C136.6 209.3 137.8 208.1 139.5 207.3C140.8 206.6 142.4 206.3 144.2 206.3C146.6 206.3 148.6 206.9 150 207.9C151.3 208.9 152.2 210.3 152.7 212.1L148.7 212.9C148.5 211.9 147.9 211.1 147.1 210.6C146.3 210 145.4 209.7 144.2 209.7C142.5 209.7 141.2 210.3 140.1 211.4C139.1 212.5 138.7 214.2 138.7 216.3C138.7 218.6 139.1 220.4 140.1 221.6C141.2 222.7 142.5 223.3 144.2 223.3C145.1 223.3 145.9 223.2 146.8 222.9C147.6 222.6 148.4 222.1 148.9 221.7V219H144.2Z" fill="#414042"/>
</svg>
