<svg width="177" height="227" viewBox="0 0 177 227" fill="none" xmlns="http://www.w3.org/2000/svg">
<path fill-rule="evenodd" clip-rule="evenodd" d="M88.4 0.400024C137.2 0.400024 176.7 39.9 176.7 88.6C176.7 137.4 137.2 176.9 88.4 176.9C39.7 176.9 0.200012 137.4 0.200012 88.6C0.200012 39.9 39.7 0.400024 88.4 0.400024Z" fill="#F48B20"/>
<path fill-rule="evenodd" clip-rule="evenodd" d="M30.8 109.1C33.4 110 34.1 115.4 39 115C41.4 114.8 41 114.2 40 112.1C37.2 106 30 89.5001 36.2 78.2001C44 64.2001 50.5 58.3001 51.2 54.8001C51.8 51.5001 55.9 59.5001 51.2 68.8001C48.2 74.7001 50.1 79.3001 51.9 81.8001C54.9 85.9001 53.8 83.5001 54.1 80.2001C54.8 74.1001 58 61.9001 72.7 53.5001C92.9 42.0001 76.1 23.7001 79.5 22.1001C82.9 20.5001 103.2 28.9001 110.1 53.8001C116.9 78.7001 109.4 85.8 113.4 87.4C117.5 89 139 74.4001 141.8 68.5001C142.5 67.2001 143.4 67.6 144.1 69.4C146.7 75.2 148 94.3001 133.9 106.8C132.5 108 131.1 109.7 134 109.5C138.7 109.3 146.5 107.9 152.1 102.7C155.3 99.9001 156.8 94.9 156 103.4C155.4 109.2 152.2 118.6 138.4 126C128.8 131.1 122.4 141.8 111.6 148.7C100.3 155.9 83.9 157 71.2 153C55.2 148.1 59.2 135.5 42.6 127.8C33.8 123.7 29.7 113.3 29.6 110C29.7 109.1 29.9 108.9 30.8 109.1Z" fill="#B92025"/>
<path fill-rule="evenodd" clip-rule="evenodd" d="M85.5 151.4C85.5 151.4 70.2 151 66 142.4C61.8 133.8 70.1 131.7 66.9 127.2C63.7 122.6 61.3 118.6 64.8 119.9C68.1 121.1 77.8 127.7 78.3 122.1C78.7 116.4 73.3 108.9 78.2 103C83 97.1 88.1 95.5 88.3 88.5C88.4 81.5 94.3 92.5 90.7 98.1C87.1 103.8 83.7 105.3 89.4 109.4C95 113.6 96.4 111.7 96.1 116.7C95.8 121.7 103.3 124.5 107.6 117.7C111.8 110.8 105.5 101.7 106.7 101.9C107.9 102.2 115.6 114.2 111.4 122C109.4 125.7 109.5 127.2 110.2 128.8C118.2 147.7 101 151.9 85.5 151.4Z" fill="#F3B81A"/>
<path d="M60 226.4V206.7H73.5V210H63.9V214.7H72.1V218H63.9V226.3H60V226.4ZM76.5 226.4V206.7H80.5V226.4H76.5ZM84.3 226.4V206.7H92.6C94.7 206.7 96.3 206.8 97.2 207.3C98.2 207.6 99 208.2 99.5 209.2C100.1 210.1 100.3 211.1 100.3 212.2C100.3 213.8 100 215 99.1 215.9C98.2 216.9 96.9 217.5 95.2 217.8C96 218.2 96.8 218.8 97.3 219.4C97.9 220.1 98.6 221.1 99.5 222.6L101.9 226.5H97.1L94.2 222.2C93.2 220.6 92.5 219.8 92.1 219.3C91.8 219 91.4 218.6 91 218.5C90.6 218.3 89.9 218.3 89 218.3H88.2V226.5H84.3V226.4ZM88.3 215.1H91.2C93.1 215.1 94.3 215 94.8 214.8C95.2 214.7 95.7 214.5 95.9 214C96.1 213.6 96.3 213.1 96.3 212.6C96.3 211.9 96.1 211.4 95.7 210.9C95.4 210.6 94.8 210.2 94.1 210.1C93.9 210.1 92.9 210.1 91.2 210.1H88.2V215.1H88.3ZM104.1 226.4V206.7H118.7V210H108.1V214.3H117.9V217.6H108.1V222.9H119V226.2H104.1V226.4Z" fill="#414042"/>
</svg>
