<svg width="178" height="227" viewBox="0 0 178 227" fill="none" xmlns="http://www.w3.org/2000/svg">
<path fill-rule="evenodd" clip-rule="evenodd" d="M89.1 0.299988C137.8 0.299988 177.3 39.8 177.3 88.6C177.3 137.3 137.8 176.8 89.1 176.8C40.4 176.8 0.799988 137.3 0.799988 88.6C0.799988 39.7 40.4 0.299988 89.1 0.299988Z" fill="#1FAFDF"/>
<path fill-rule="evenodd" clip-rule="evenodd" d="M54.8 85.5C106.5 46.8 135 24.6 143.3 29.6C151.5 34.4 116.5 69.1 118.2 74.8C120 80.5 146.8 80.7 147 84.9C147.3 89.1 123.1 94.8 121.3 99.6C119.6 104.5 147 112.9 146.8 118.8C146.5 124.7 114.3 116.6 112.3 120.8C110.3 125 117.6 139 112.7 142.4C107.7 145.7 88 128.2 84 131.3C80.1 134.4 79 150.2 57.8 148.2C43.6 146.9 32.9 136.3 31.4 123.2C29.5 105.5 42.2 94.8 54.8 85.5Z" fill="white"/>
<path d="M42.8 226.2V206.5H56.3V209.8H46.7V214.5H54.9V217.8H46.7V226.1H42.8V226.2ZM59.6 226.2V206.6H63.6V222.8H73.5V226.1H59.6V226.2ZM78.9 226.2V217.9L71.7 206.6H76.4L81.1 214.4L85.5 206.6H90.1L82.9 218.1V226.3H78.9V226.2ZM91.9 226.2V206.5H95.9V226.2H91.9ZM99.7 226.2V206.5H103.6L111.6 219.6V206.5H115.3V226.2H111.4L103.4 213.3V226.2H99.7ZM128.6 219V215.7H137.2V223.5C136.4 224.4 135.2 225.1 133.6 225.6C132 226.3 130.4 226.6 128.8 226.6C126.7 226.6 124.9 226.2 123.4 225.3C122 224.4 120.7 223.2 120 221.6C119.2 219.9 118.9 218.3 118.9 216.4C118.9 214.3 119.3 212.5 120.1 211C121 209.3 122.2 208.1 123.9 207.3C125.2 206.6 126.8 206.3 128.7 206.3C131.1 206.3 133 206.9 134.4 207.9C135.7 208.9 136.6 210.3 137.1 212.1L133.2 212.9C132.9 211.9 132.3 211.1 131.5 210.6C130.8 210 129.8 209.7 128.7 209.7C126.9 209.7 125.6 210.3 124.5 211.4C123.5 212.5 123.1 214.2 123.1 216.3C123.1 218.6 123.5 220.4 124.7 221.6C125.7 222.7 127 223.3 128.7 223.3C129.6 223.3 130.4 223.2 131.3 222.9C132.1 222.6 132.9 222.1 133.4 221.7V219H128.6Z" fill="#414042"/>
</svg>
