<svg width="177" height="227" viewBox="0 0 177 227" fill="none" xmlns="http://www.w3.org/2000/svg">
<path fill-rule="evenodd" clip-rule="evenodd" d="M88.3 0C137 0 176.5 39.5 176.5 88.2C176.5 136.9 137 176.4 88.3 176.4C39.6 176.4 0 136.9 0 88.2C0 39.5 39.6 0 88.3 0Z" fill="#8B7E71"/>
<path fill-rule="evenodd" clip-rule="evenodd" d="M9.20004 91.5C8.00004 106.8 17.3 76.3 39 68.3C79.1 53.5 86.0001 94.3 99.9001 109.6C134.6 147.3 173.7 100.8 155.7 59.2C126.6 -8.8 15.6 13.2 9.20004 91.5ZM154.7 113C154.1 116 154.9 117 156.5 117.3C159.4 117.9 160.9 118.2 162.7 120.5C164.6 122.9 166.9 121.5 166.8 116.5C166.6 108.8 156.6 104.4 154.7 113ZM90.8 130.9C90.7 134.7 94.6 133.6 96.8 133.3C97.8 133.3 98.7001 133.3 99.4001 134.1C101.4 136.4 103.4 133.4 106.7 134.9C114.4 138.1 111.5 121.4 101.5 121C96.9 120.8 91 123.6 90.8 130.9ZM127.6 109.7C121.9 116.4 110.8 112.4 105.2 107.5C99.6 102.7 98.9 94.5 103.5 89C109.4 82.2 133.4 103.1 127.6 109.7ZM141.3 108.4C145.4 108 150.5 102.4 151.8 97.2C153.2 91.3 150.1 85.6 144.9 84.5C136.5 83 133.2 109.2 141.3 108.4Z" fill="white"/>
<path d="M51.3 218.6V215.3H59.9V223.2C59 224 57.9 224.6 56.2 225.3C54.6 225.9 53.1 226.2 51.4 226.2C49.4 226.2 47.6 225.8 46.1 225C44.5 224.1 43.4 222.9 42.7 221.2C41.9 219.6 41.6 217.9 41.6 216C41.6 214 41.9 212.1 42.8 210.6C43.7 209.1 44.9 207.8 46.6 206.9C47.8 206.2 49.5 205.9 51.3 205.9C53.7 205.9 55.7 206.5 57.1 207.5C58.4 208.5 59.3 209.9 59.8 211.7L55.8 212.5C55.6 211.5 55 210.7 54.2 210.2C53.4 209.6 52.5 209.4 51.3 209.4C49.6 209.4 48.2 210 47.2 211.1C46.2 212.2 45.6 213.8 45.6 216C45.6 218.3 46.2 220 47.2 221.2C48.3 222.3 49.6 223 51.3 223C52.2 223 53 222.8 53.9 222.4C54.7 222.1 55.3 221.7 56 221.3V218.7H51.3V218.6ZM63.5 225.9V206.2H67.5V214H75.3V206.2H79.2V225.9H75.3V217.3H67.5V225.9H63.5ZM82.6 216.2C82.6 214.2 82.9 212.5 83.5 211.2C83.9 210.2 84.6 209.2 85.3 208.4C86.1 207.6 87 207.1 87.9 206.6C89.1 206.2 90.6 205.8 92.1 205.8C95 205.8 97.3 206.7 99.1 208.6C100.9 210.4 101.7 212.8 101.7 216.1C101.7 219.3 100.9 221.8 99.1 223.6C97.4 225.4 95.1 226.3 92.2 226.3C89.3 226.3 87 225.4 85.2 223.6C83.4 221.8 82.6 219.3 82.6 216.2ZM86.7 216.1C86.7 218.3 87.1 220 88.3 221.1C89.3 222.3 90.6 222.9 92.2 222.9C93.8 222.9 95.1 222.3 96.1 221.1C97.1 220 97.5 218.3 97.5 216C97.5 213.8 97.1 212.1 96.1 211C95.1 209.9 93.9 209.3 92.2 209.3C90.5 209.3 89.2 209.9 88.2 211C87.1 212.1 86.7 213.7 86.7 216.1ZM103.7 219.5L107.6 219.1C107.8 220.4 108.3 221.4 109 222C109.7 222.6 110.7 222.9 111.9 222.9C113.1 222.9 114.1 222.7 114.7 222.1C115.4 221.5 115.7 220.9 115.7 220.2C115.7 219.8 115.6 219.3 115.4 219C115.1 218.7 114.6 218.4 114 218.1C113.6 218 112.4 217.7 110.8 217.3C108.7 216.7 107.2 216.1 106.4 215.3C105.2 214.3 104.6 213 104.6 211.4C104.6 210.4 104.8 209.4 105.4 208.5C106 207.7 106.8 207.1 107.8 206.6C108.9 206 110.2 205.8 111.7 205.8C114.1 205.8 116 206.4 117.3 207.5C118.5 208.6 119.2 210.1 119.3 211.8L115.3 212C115.2 210.9 114.7 210.2 114.2 209.8C113.6 209.4 112.9 209.1 111.8 209.1C110.6 209.1 109.7 209.3 109 209.8C108.7 210.1 108.4 210.6 108.4 211C108.4 211.4 108.5 211.9 109 212.2C109.6 212.6 110.7 213.1 112.7 213.5C114.6 213.9 116 214.4 116.9 214.9C117.9 215.3 118.6 216 119.1 216.9C119.7 217.7 119.9 218.8 119.9 220C119.9 221.1 119.6 222.1 119 223.1C118.3 224.1 117.4 224.9 116.3 225.3C115.1 225.7 113.7 226 112 226C109.6 226 107.7 225.4 106.3 224.3C104.8 223.3 104 221.6 103.7 219.5ZM127.5 225.9V209.6H121.6V206.3H137.3V209.6H131.4V225.9H127.5Z" fill="#414042"/>
</svg>
