<svg width="178" height="227" viewBox="0 0 178 227" fill="none" xmlns="http://www.w3.org/2000/svg">
<path fill-rule="evenodd" clip-rule="evenodd" d="M89 0.400024C137.8 0.400024 177.3 39.9 177.3 88.6C177.3 137.4 137.8 176.9 89 176.9C40.3 176.9 0.799988 137.4 0.799988 88.6C0.799988 39.9 40.2 0.400024 89 0.400024Z" fill="#56B947"/>
<path fill-rule="evenodd" clip-rule="evenodd" d="M85.2 26.6C68 40.6 17.1 103.7 76.6 136.8C89.7 144.1 85.4 159.9 85.4 159.9C87 160.2 90.8 160.2 92.4 159.9C92.4 159.9 88.1 144.2 101.2 136.8C168.8 98.2 105.6 73.2 92.7 26.7C91.6 22.7 88.2 24.1 85.2 26.6Z" fill="#E8E85F"/>
<path d="M52 219.2V215.9H60.6V223.7C59.7 224.6 58.5 225.3 56.9 225.8C55.3 226.5 53.8 226.8 52.1 226.8C50.1 226.8 48.2 226.4 46.8 225.5C45.2 224.6 44.1 223.4 43.4 221.8C42.6 220.1 42.2 218.5 42.2 216.6C42.2 214.5 42.6 212.7 43.5 211.2C44.4 209.5 45.6 208.3 47.3 207.5C48.5 206.8 50.1 206.5 52 206.5C54.4 206.5 56.3 206.9 57.8 208.1C59.1 209.1 60 210.5 60.4 212.3L56.5 213C56.2 212.1 55.7 211.3 54.9 210.8C54.1 210.2 53.1 209.9 52 209.9C50.3 209.9 48.9 210.5 47.9 211.6C46.9 212.7 46.3 214.4 46.3 216.5C46.3 218.8 46.9 220.6 47.9 221.7C48.9 222.9 50.3 223.5 52 223.5C52.8 223.5 53.7 223.4 54.4 223.1C55.3 222.8 56 222.3 56.6 221.9V219.5H52V219.2ZM64.3 226.4V206.7H72.6C74.7 206.7 76.2 206.8 77.2 207.3C78.2 207.6 78.9 208.2 79.5 209.2C80.1 210.1 80.3 211.1 80.3 212.2C80.3 213.8 79.9 215 79.1 215.9C78.2 216.9 76.9 217.5 75.2 217.8C76 218.2 76.8 218.8 77.3 219.4C77.9 220.1 78.6 221.1 79.5 222.6L81.9 226.5H77.1L74.2 222.2C73.2 220.6 72.5 219.8 72.1 219.3C71.8 219 71.3 218.6 71 218.5C70.6 218.3 69.9 218.3 69 218.3H68.1V226.5H64.3V226.4ZM68.2 215.1H71.2C73.1 215.1 74.3 215 74.8 214.8C75.2 214.7 75.7 214.5 75.9 214C76.1 213.6 76.3 213.1 76.3 212.6C76.3 211.9 76.1 211.4 75.7 210.9C75.4 210.6 74.8 210.2 74.1 210.1C73.8 210.1 72.9 210.1 71.2 210.1H68.1V215.1H68.2ZM101.7 226.4H97.5L95.7 221.8H87.8L86.2 226.4H82L89.7 206.7H93.9L101.7 226.4ZM94.5 218.6L91.7 211.3L89 218.6H94.5ZM102.9 220L106.8 219.7C107 220.9 107.5 221.9 108.2 222.5C108.9 223.2 109.9 223.5 111.1 223.5C112.3 223.5 113.3 223.2 114 222.6C114.6 222 114.9 221.5 114.9 220.7C114.9 220.3 114.8 219.9 114.6 219.6C114.3 219.3 113.8 218.9 113.2 218.7C112.8 218.5 111.6 218.3 110 217.8C107.9 217.2 106.4 216.7 105.6 215.9C104.4 214.8 103.8 213.5 103.8 211.9C103.8 210.9 104 210 104.6 209.1C105.2 208.2 106 207.5 107 207.1C108.1 206.7 109.4 206.4 110.9 206.4C113.3 206.4 115.2 207 116.5 208C117.7 209.1 118.4 210.6 118.5 212.3L114.5 212.5C114.4 211.5 113.9 210.7 113.4 210.3C112.8 209.9 112.1 209.6 111 209.6C109.8 209.6 108.9 209.9 108.2 210.4C107.9 210.6 107.6 211.1 107.6 211.6C107.6 212 107.8 212.5 108.2 212.7C108.8 213.1 109.9 213.6 111.9 214C113.8 214.4 115.2 215 116.1 215.4C117.1 215.8 117.8 216.5 118.3 217.4C118.9 218.3 119.1 219.3 119.1 220.5C119.1 221.6 118.8 222.7 118.2 223.7C117.5 224.6 116.6 225.4 115.5 225.8C114.3 226.4 112.9 226.6 111.2 226.6C108.8 226.6 106.9 226 105.5 224.8C104 223.8 103.2 222.2 102.9 220ZM121.2 220L125.1 219.7C125.3 220.9 125.8 221.9 126.4 222.5C127.2 223.2 128.1 223.5 129.3 223.5C130.6 223.5 131.5 223.2 132.2 222.6C132.9 222 133.2 221.5 133.2 220.7C133.2 220.3 133.1 219.9 132.8 219.6C132.6 219.3 132.1 218.9 131.4 218.7C131 218.5 130 218.3 128.3 217.8C126.2 217.2 124.6 216.7 123.9 215.9C122.7 214.8 122 213.5 122 211.9C122 210.9 122.3 210 122.9 209.1C123.5 208.2 124.2 207.5 125.3 207.1C126.4 206.7 127.6 206.4 129.2 206.4C131.6 206.4 133.5 207 134.8 208C136 209.1 136.7 210.6 136.8 212.3L132.8 212.5C132.6 211.5 132.2 210.7 131.7 210.3C131.1 209.9 130.4 209.6 129.1 209.6C128 209.6 127.1 209.9 126.4 210.4C126 210.6 125.7 211.1 125.7 211.6C125.7 212 125.9 212.5 126.4 212.7C126.8 213.1 128.1 213.6 130.1 214C132 214.4 133.4 215 134.3 215.4C135.2 215.8 136 216.5 136.5 217.4C136.9 218.3 137.3 219.3 137.3 220.5C137.3 221.6 137 222.7 136.3 223.7C135.7 224.6 134.9 225.4 133.6 225.8C132.5 226.4 131 226.6 129.4 226.6C127 226.6 125 226 123.6 224.8C122.2 223.8 121.4 222.2 121.2 220Z" fill="#414042"/>
</svg>
