<svg width="178" height="227" viewBox="0 0 178 227" fill="none" xmlns="http://www.w3.org/2000/svg">
<path fill-rule="evenodd" clip-rule="evenodd" d="M89.1 0.400024C137.8 0.400024 177.3 39.9 177.3 88.6C177.3 137.4 137.8 176.9 89.1 176.9C40.4 176.9 0.799988 137.4 0.799988 88.6C0.799988 39.9 40.4 0.400024 89.1 0.400024Z" fill="#78421B"/>
<path fill-rule="evenodd" clip-rule="evenodd" d="M44.9 95.4C60.7 95.2 73.6 110.4 67.6 125.3C62.8 137.2 49.9 139.3 39.6 132.6C28.8 125.8 18.6 112.4 30.6 101C34.4 97.5 39.5 95.6 44.9 95.4ZM110.5 23.4C130.1 23.4 128.4 55.4 107.5 54.2C88 53 89 26.3 107.7 23.5C108.6 23.4 109.5 23.3 110.5 23.4ZM56 28.4C82.4 29.5 79.4 68.7 54.8 69.9C41.8 70.6 30.9 61 33 47.1C34.6 36.2 45 28 56 28.4ZM145.2 65.7C158.7 65.6 163 78.3 159.3 89.4C156.6 97.4 150.2 107.3 143.6 112.6C136 118.7 127 112.5 124.5 104C120.2 89.8 127.7 65.5 145.2 65.7ZM107.5 115.1C120.3 114.8 130.3 128.3 130.1 140.8C129.9 152.1 121.4 163 109.6 162.9C99.6 162.8 93.3 155.1 93.8 145.4C94 141.2 95.4 136.4 95.8 131.9C96.8 124.1 96.9 114.9 107.5 115.1ZM92.6 65.4C111.4 65.5 117.7 90.1 105.1 102.9C90.9 117.4 67.1 102.7 71.8 82.2C74.1 72.6 82.7 65.1 92.6 65.4Z" fill="#B56428"/>
<path d="M39.9 219.2V215.9H48.5V223.7C47.7 224.6 46.5 225.3 44.9 225.8C43.3 226.5 41.7 226.8 40.1 226.8C38 226.8 36.2 226.4 34.7 225.5C33.3 224.6 32 223.4 31.3 221.8C30.5 220.1 30.2 218.5 30.2 216.6C30.2 214.5 30.6 212.7 31.4 211.2C32.3 209.5 33.5 208.3 35.2 207.5C36.5 206.8 38.1 206.5 40 206.5C42.4 206.5 44.3 206.9 45.7 208.1C47 209.1 47.9 210.5 48.4 212.3L44.4 213C44.2 212.1 43.6 211.3 42.8 210.8C42.1 210.2 41.1 209.9 40 209.9C38.2 209.9 36.9 210.5 35.8 211.6C34.8 212.7 34.4 214.4 34.4 216.5C34.4 218.8 34.8 220.6 36 221.7C37 222.9 38.3 223.5 40 223.5C40.9 223.5 41.7 223.4 42.6 223.1C43.4 222.8 44.2 222.3 44.7 221.9V219.5H39.9V219.2ZM52.1 226.4V206.7H60.4C62.5 206.7 64.1 206.8 65.1 207.3C66 207.6 66.8 208.2 67.3 209.2C67.9 210.1 68.2 211.1 68.2 212.2C68.2 213.8 67.8 215 66.9 215.9C66 216.9 64.8 217.5 63 217.8C63.9 218.2 64.6 218.8 65.1 219.4C65.7 220.1 66.4 221.1 67.4 222.6L69.7 226.5H65L62.1 222.2C61.1 220.6 60.3 219.8 60 219.3C59.7 219 59.2 218.6 58.8 218.5C58.4 218.3 57.7 218.3 56.8 218.3H56V226.5H52.1V226.4ZM56.1 215.1H59C60.9 215.1 62.1 215 62.6 214.8C63.2 214.7 63.5 214.5 63.7 214C64 213.6 64.1 213.1 64.1 212.6C64.1 211.9 63.9 211.4 63.5 210.9C63.2 210.6 62.7 210.2 62.1 210.1C61.8 210.1 60.8 210.1 59.2 210.1H56.1V215.1ZM71.1 216.6C71.1 214.6 71.4 212.9 72 211.6C72.4 210.6 73.1 209.7 73.9 208.9C74.7 208.1 75.5 207.5 76.5 207.1C77.7 206.5 79.1 206.3 80.7 206.3C83.6 206.3 85.9 207.2 87.6 209C89.4 210.8 90.3 213.3 90.3 216.5C90.3 219.7 89.4 222.2 87.6 224C85.9 225.9 83.6 226.8 80.7 226.8C77.8 226.8 75.5 225.9 73.7 224.1C72 222.3 71.1 219.7 71.1 216.6ZM75.2 216.5C75.2 218.7 75.8 220.4 76.8 221.6C77.8 222.7 79.1 223.3 80.7 223.3C82.3 223.3 83.6 222.7 84.6 221.6C85.6 220.4 86.2 218.7 86.2 216.5C86.2 214.2 85.6 212.5 84.6 211.4C83.7 210.3 82.4 209.7 80.7 209.7C79 209.7 77.8 210.3 76.7 211.4C75.8 212.6 75.2 214.3 75.2 216.5ZM93.3 206.7H97.3V217.4C97.3 219.1 97.3 220.2 97.4 220.6C97.6 221.4 98 222 98.6 222.6C99.3 223 100.2 223.3 101.3 223.3C102.4 223.3 103.3 223.1 103.9 222.6C104.5 222.2 104.8 221.6 104.9 220.9C105 220.2 105.1 219.1 105.1 217.6V206.7H109V217C109 219.3 108.9 221 108.7 222C108.5 222.9 108.1 223.8 107.6 224.4C107 225.1 106.3 225.6 105.3 226C104.3 226.4 103.1 226.7 101.5 226.7C99.6 226.7 98.2 226.5 97.2 226C96.3 225.6 95.5 225 95 224.3C94.4 223.5 94 222.9 93.9 222.1C93.6 221 93.5 219.3 93.5 217.1V206.7H93.3ZM113.2 226.4V206.7H117.1L125.1 219.8V206.7H128.8V226.4H124.9L116.9 213.5V226.4H113.2ZM133 206.7H140.2C141.9 206.7 143.1 206.8 144 207C145.1 207.3 146.1 208 147 208.9C147.8 209.7 148.4 210.8 148.8 212C149.2 213.2 149.5 214.8 149.5 216.7C149.5 218.3 149.3 219.7 148.9 220.9C148.3 222.2 147.7 223.5 146.8 224.3C146.1 225 145.1 225.5 144 225.9C143.1 226.1 141.9 226.3 140.4 226.3H133V206.7ZM137 210.1V223.1H139.9C141 223.1 141.9 223 142.3 222.9C143 222.8 143.5 222.5 143.9 222.1C144.3 221.7 144.7 221.1 145 220.2C145.2 219.3 145.3 218.1 145.3 216.5C145.3 215.1 145.2 213.8 145 213.1C144.7 212.3 144.3 211.7 143.9 211.2C143.3 210.8 142.8 210.4 142 210.2C141.4 210.1 140.3 210.1 138.8 210.1H137V210.1Z" fill="#414042"/>
</svg>
