<svg width="177" height="228" viewBox="0 0 177 228" fill="none" xmlns="http://www.w3.org/2000/svg">
<path fill-rule="evenodd" clip-rule="evenodd" d="M88.7 0.899994C137.5 0.899994 177 40.4 177 89.1C177 137.8 137.5 177.3 88.7 177.3C40 177.3 0.5 137.8 0.5 89.1C0.5 40.4 40 0.899994 88.7 0.899994Z" fill="#65CDF6"/>
<path fill-rule="evenodd" clip-rule="evenodd" d="M88.5 25.3C91.4 25.3 93.8 27.7 93.8 30.7V36L95.6 34.2C97.7 32.1 101.2 32.1 103.3 34.2C105.3 36.3 105.3 39.8 103.3 41.9L93.8 51.2V79.8L118.9 65.3L122.3 52.5C123.1 49.6 126.1 47.8 128.9 48.6C131.8 49.4 133.6 52.4 132.8 55.3L132.1 57.6L136.8 54.9C139.4 53.3 142.7 54.2 144.1 56.9C145.7 59.5 144.8 62.8 142.2 64.2L137.5 66.9L139.8 67.6C142.7 68.4 144.4 71.4 143.6 74.2C142.8 77.1 139.9 78.9 137 78.1L124.2 74.7L99.7 88.8L123.7 102.7L136.5 99.3C139.4 98.5 142.4 100.3 143.2 103.2C144 106 142.2 109 139.4 109.8L137 110.5L141.7 113.2C144.3 114.6 145.1 118 143.7 120.5C142.3 123.2 138.9 124.1 136.2 122.5L131.6 119.8L132.2 122.1C133 125 131.3 128 128.4 128.8C125.5 129.6 122.5 127.8 121.7 124.9L118.4 112.1L93.6 97.9V126.9L103.1 136.2C105.1 138.3 105.1 141.8 103.1 143.9C101 146 97.5 146 95.4 143.9L93.6 142.1V147.4C93.6 150.4 91.2 152.8 88.3 152.8C85.3 152.8 82.9 150.4 82.9 147.4V142.1L81.1 143.9C79.1 146 75.7 146 73.5 143.9C71.4 141.8 71.4 138.3 73.5 136.2L82.8 126.9V98.7L58.7 112.6L55.4 125.4C54.6 128.3 51.6 130 48.7 129.2C45.8 128.4 44.1 125.4 44.9 122.6L45.5 120.2L40.8 123C38.2 124.4 34.9 123.6 33.5 121C32.1 118.4 32.9 115.1 35.5 113.5L40.1 110.8L37.8 110.2C35 109.4 33.2 106.4 34 103.5C34.8 100.6 37.8 98.9 40.7 99.6L53.5 103L78.2 88.8L53.1 74.3L40.3 77.7C37.4 78.4 34.4 76.7 33.7 73.8C32.9 70.9 34.6 67.9 37.5 67.1L39.8 66.5L35.1 63.8C32.5 62.2 31.7 58.9 33.2 56.3C34.6 53.7 38 52.9 40.5 54.3L45.2 57L44.5 54.7C43.7 51.9 45.5 48.9 48.3 48.1C51.2 47.3 54.2 49 55 51.9L58.4 64.7L82.9 78.8V51L73.6 41.7C71.5 39.6 71.5 36.1 73.6 34C75.7 31.9 79.2 31.9 81.2 34L83 35.8V30.5C83 27.7 85.5 25.3 88.5 25.3Z" fill="white"/>
<path d="M67.8 226.8V207.1H71.8V226.8H67.8ZM88.1 219.5L92 220.7C91.3 222.8 90.3 224.5 89 225.5C87.7 226.5 85.9 227.1 83.8 227.1C81.2 227.1 79 226.2 77.3 224.4C75.6 222.6 74.9 220.2 74.9 217.1C74.9 213.9 75.7 211.3 77.3 209.5C79.1 207.7 81.3 206.7 84 206.7C86.4 206.7 88.3 207.5 89.9 208.9C90.8 209.7 91.5 210.9 91.9 212.5L88 213.5C87.8 212.4 87.2 211.6 86.6 211.1C85.8 210.5 84.9 210.2 83.8 210.2C82.4 210.2 81.2 210.8 80.4 211.8C79.4 212.8 79 214.6 79 216.9C79 219.3 79.4 221.1 80.3 222.1C81.2 223.2 82.4 223.8 83.9 223.8C84.9 223.8 85.8 223.5 86.6 222.8C87.2 222.1 87.8 221 88.1 219.5ZM95.4 226.8V207.1H110V210.4H99.4V214.8H109.3V218H99.4V223.3H110.4V226.6H95.4V226.8Z" fill="#414042"/>
</svg>
