<svg width="177" height="228" viewBox="0 0 177 228" fill="none" xmlns="http://www.w3.org/2000/svg">
<path fill-rule="evenodd" clip-rule="evenodd" d="M88.2 0.899994C136.9 0.899994 176.5 40.4 176.5 89.1C176.5 137.8 136.9 177.3 88.2 177.3C39.5 177.3 0 137.8 0 89.1C0 40.4 39.5 0.899994 88.2 0.899994Z" fill="#F3B81A"/>
<path fill-rule="evenodd" clip-rule="evenodd" d="M88.2 26.9C113.3 26.9 133.7 66.8 133.7 101.1C133.7 167.9 42.7 167.9 42.7 101.1C42.7 66.8 63.1 26.9 88.2 26.9Z" fill="#B56428"/>
<path d="M30.7 226.8V207.1H34.6L42.6 220.2V207.1H46.3V226.8H42.3L34.4 214V226.8H30.7ZM49.7 217.1C49.7 215.1 49.9 213.4 50.6 212.1C51 211.1 51.6 210.1 52.4 209.3C53.2 208.5 54.1 208 55 207.5C56.2 207.1 57.7 206.7 59.2 206.7C62.1 206.7 64.4 207.6 66.2 209.5C67.9 211.3 68.8 213.7 68.8 217C68.8 220.2 67.9 222.7 66.2 224.5C64.4 226.3 62.2 227.2 59.3 227.2C56.3 227.2 54 226.3 52.3 224.5C50.5 222.7 49.7 220.2 49.7 217.1ZM53.7 217C53.7 219.2 54.3 220.9 55.3 222C56.4 223.2 57.6 223.8 59.3 223.8C60.9 223.8 62.1 223.2 63.2 222C64.2 220.9 64.6 219.2 64.6 216.9C64.6 214.7 64.2 213 63.2 211.9C62.2 210.8 60.9 210.2 59.3 210.2C57.6 210.2 56.3 210.8 55.3 211.9C54.3 213 53.7 214.6 53.7 217ZM71.8 226.8V207.1H80.1C82.2 207.1 83.8 207.3 84.7 207.7C85.7 208 86.5 208.7 87 209.6C87.6 210.5 87.9 211.6 87.9 212.7C87.9 214.1 87.5 215.4 86.6 216.4C85.7 217.3 84.5 218 82.7 218.2C83.6 218.8 84.3 219.3 84.8 219.9C85.4 220.5 86.1 221.6 87 223.1L89.4 226.9H84.6L81.8 222.7C80.7 221.1 80 220.1 79.7 219.8C79.3 219.4 78.9 219.1 78.5 218.9C78.1 218.8 77.4 218.7 76.5 218.7H75.7V226.9H71.8V226.8ZM75.8 215.4H78.7C80.6 215.4 81.8 215.3 82.3 215.2C82.9 215.1 83.2 214.8 83.4 214.4C83.7 214 83.8 213.5 83.8 212.8C83.8 212.1 83.6 211.7 83.2 211.2C82.9 210.8 82.4 210.5 81.8 210.4C81.5 210.4 80.5 210.3 78.9 210.3H75.8V215.4ZM91.6 226.8V207.1H97.5L101.1 220.6L104.7 207.1H110.7V226.8H106.9V211.3L103 226.8H99.2L95.3 211.3V226.8H91.6ZM132.2 226.8H128L126.2 222.4H118.3L116.7 226.8H112.5L120.2 207.1H124.4L132.2 226.8ZM125 219L122.2 211.8L119.5 219H125ZM134.5 226.8V207.3H138.5V223.4H148.4V226.7H134.5V226.8Z" fill="#414042"/>
</svg>
