<svg width="177" height="227" viewBox="0 0 177 227" fill="none" xmlns="http://www.w3.org/2000/svg">
<path fill-rule="evenodd" clip-rule="evenodd" d="M88.4 0.299988C137.2 0.299988 176.7 39.8 176.7 88.6C176.7 137.3 137.2 176.8 88.4 176.8C39.7 176.8 0.200012 137.3 0.200012 88.6C0.200012 39.7 39.7 0.299988 88.4 0.299988Z" fill="#B92025"/>
<path fill-rule="evenodd" clip-rule="evenodd" d="M88.4 28.3C109.8 28.3 127 45.6 127 66.9C127 79.4 121.1 90.5 111.9 97.5C106.2 119.1 70.8 119.1 65 97.5C55.9 90.5 50 79.4 50 66.9C50 45.6 67.2 28.3 88.4 28.3ZM143.3 115.3C144.1 118.2 142.3 121.3 139.4 122.1L109.9 130L139.4 137.9C142.3 138.7 144.1 141.7 143.3 144.7C142.5 147.6 139.4 149.4 136.5 148.6L88.5 135.7L40.6 148.6C37.6 149.4 34.6 147.6 33.8 144.7C33 141.7 34.8 138.7 37.7 137.9L67.2 130L37.7 122.1C34.8 121.3 33 118.2 33.8 115.3C34.6 112.3 37.6 110.5 40.6 111.4L88.5 124.2L136.5 111.4C139.4 110.5 142.5 112.3 143.3 115.3ZM74.5 51.6C78.9 51.6 82.6 57.9 82.6 65.6C82.6 73.4 78.9 79.6 74.5 79.6C69.9 79.6 66.4 73.4 66.4 65.6C66.4 58 70 51.6 74.5 51.6ZM102.4 51.6C107 51.6 110.5 57.9 110.5 65.6C110.5 73.4 106.9 79.6 102.4 79.6C98 79.6 94.3 73.4 94.3 65.6C94.3 58 98 51.6 102.4 51.6ZM84.1 84.1C85 84.1 85.8 85.3 85.8 86.9C85.8 88.5 85 89.8 84.1 89.8C83.2 89.8 82.4 88.5 82.4 86.9C82.4 85.3 83.2 84.1 84.1 84.1ZM92.9 84.1C93.8 84.1 94.6 85.3 94.6 86.9C94.6 88.5 93.8 89.8 92.9 89.8C91.9 89.8 91.2 88.5 91.2 86.9C91.2 85.3 91.9 84.1 92.9 84.1Z" fill="white"/>
<path d="M37.7 226.2V206.5H44.2C46.5 206.5 48.1 206.6 48.9 206.8C50 207 51 207.7 51.7 208.7C52.5 209.7 52.9 210.9 52.9 212.5C52.9 213.7 52.7 214.7 52.2 215.6C51.8 216.4 51.2 217 50.5 217.5C49.8 217.9 49.2 218.3 48.4 218.4C47.5 218.6 46.1 218.7 44.3 218.7H41.7V226.2H37.7V226.2ZM41.7 209.9V215.5H43.8C45.5 215.5 46.5 215.4 47 215.2C47.4 215 47.9 214.8 48.2 214.3C48.5 213.9 48.6 213.3 48.6 212.7C48.6 211.9 48.4 211.4 47.9 210.9C47.5 210.5 47 210.1 46.3 210C45.9 209.9 44.9 209.9 43.4 209.9H41.7V209.9ZM55.3 216.5C55.3 214.5 55.5 212.8 56.2 211.5C56.6 210.5 57.2 209.6 58 208.8C58.8 208 59.7 207.4 60.6 207C61.8 206.4 63.3 206.2 64.8 206.2C67.7 206.2 70 207.1 71.8 208.9C73.5 210.7 74.4 213.2 74.4 216.5C74.4 219.6 73.5 222.1 71.8 224C70 225.8 67.8 226.7 64.9 226.7C61.9 226.7 59.7 225.8 57.9 224C56.1 222.1 55.3 219.7 55.3 216.5ZM59.4 216.3C59.4 218.5 59.8 220.2 60.8 221.4C61.9 222.5 63.1 223.1 64.8 223.1C66.4 223.1 67.6 222.5 68.7 221.4C69.7 220.3 70.1 218.5 70.1 216.3C70.1 214 69.7 212.3 68.7 211.2C67.7 210.1 66.4 209.5 64.8 209.5C63.1 209.5 61.8 210.2 60.8 211.3C59.9 212.5 59.4 214.1 59.4 216.3ZM77.3 226.2V206.5H81.3V226.2H77.3ZM84.1 219.8L87.9 219.5C88.1 220.8 88.7 221.7 89.3 222.4C90 223 91 223.3 92.2 223.3C93.4 223.3 94.4 223 95.1 222.4C95.8 222 96.1 221.3 96.1 220.5C96.1 220.1 95.9 219.7 95.7 219.4C95.5 219.1 94.9 218.7 94.3 218.5C93.9 218.4 92.7 218.1 91.2 217.6C89 217.2 87.5 216.5 86.6 215.7C85.4 214.6 84.8 213.3 84.8 211.7C84.8 210.7 85.1 209.8 85.7 208.9C86.3 208 87 207.3 88.1 206.9C89.1 206.5 90.4 206.2 92 206.2C94.4 206.2 96.2 206.8 97.6 207.9C98.8 208.9 99.5 210.3 99.5 212.1L95.6 212.3C95.4 211.3 95 210.5 94.5 210.1C93.9 209.7 93.1 209.5 91.9 209.5C90.8 209.5 89.9 209.7 89.2 210.2C88.8 210.5 88.5 210.9 88.5 211.4C88.5 211.8 88.7 212.3 89.1 212.6C89.7 212.9 90.9 213.4 92.8 213.8C94.8 214.2 96.1 214.8 97.1 215.2C98 215.8 98.8 216.3 99.2 217.2C99.8 218.1 100 219.1 100 220.3C100 221.4 99.8 222.5 99.1 223.5C98.4 224.5 97.5 225.2 96.4 225.6C95.3 226.2 93.8 226.4 92.2 226.4C89.6 226.4 87.8 225.8 86.4 224.6C85.1 223.7 84.3 222 84.1 219.8ZM102.6 216.5C102.6 214.5 102.9 212.8 103.5 211.5C103.9 210.5 104.6 209.6 105.4 208.8C106.2 208 107 207.4 108 207C109.2 206.4 110.6 206.2 112.2 206.2C115.1 206.2 117.4 207.1 119.1 208.9C120.9 210.7 121.8 213.2 121.8 216.5C121.8 219.6 120.9 222.1 119.1 224C117.4 225.8 115.1 226.7 112.2 226.7C109.3 226.7 107 225.8 105.2 224C103.4 222.1 102.6 219.7 102.6 216.5ZM106.7 216.3C106.7 218.5 107.3 220.2 108.3 221.4C109.3 222.5 110.6 223.1 112.2 223.1C113.8 223.1 115.1 222.5 116.1 221.4C117.1 220.3 117.7 218.5 117.7 216.3C117.7 214 117.1 212.3 116.1 211.2C115.2 210.1 113.9 209.5 112.2 209.5C110.5 209.5 109.2 210.2 108.2 211.3C107.1 212.5 106.7 214.1 106.7 216.3ZM124.8 226.2V206.5H128.7L136.7 219.6V206.5H140.4V226.2H136.4L128.5 213.3V226.2H124.8Z" fill="#414042"/>
</svg>
