<svg width="178" height="228" viewBox="0 0 178 228" fill="none" xmlns="http://www.w3.org/2000/svg">
<path fill-rule="evenodd" clip-rule="evenodd" d="M89.2 0.899994C137.9 0.899994 177.4 40.4 177.4 89.1C177.4 137.8 137.9 177.3 89.2 177.3C40.4 177.3 0.900024 137.8 0.900024 89.1C0.900024 40.4 40.4 0.899994 89.2 0.899994Z" fill="#C03995"/>
<path fill-rule="evenodd" clip-rule="evenodd" d="M88.8 40.4H89.2H89.5C131.6 40.4 165.7 80.3 165.7 89.1C165.7 97.9 131.7 137.8 89.5 137.8H89.2H88.8C46.7 137.8 12.6 97.9 12.6 89.1C12.6 80.3 46.6 40.4 88.8 40.4ZM89.2 67.7C101 67.7 110.6 77.3 110.6 89.1C110.6 100.9 101 110.5 89.2 110.5C77.3 110.5 67.8 100.9 67.8 89.1C67.8 77.3 77.3 67.7 89.2 67.7ZM88.9 52.9L89.2 53L89.4 52.9C122.1 52.9 148.6 82.6 148.6 89C148.6 95.4 122.1 125.1 89.4 125.1L89.2 125L88.9 125.1C56.2 125.1 29.7 95.4 29.7 89C29.7 82.6 56.2 52.9 88.9 52.9Z" fill="#F3B81A"/>
<path d="M30.8 226.8V207.1H37.1C39.5 207.1 41.1 207.2 41.8 207.4C43 207.7 43.9 208.3 44.7 209.3C45.5 210.3 45.8 211.6 45.8 213.2C45.8 214.4 45.6 215.4 45.1 216.2C44.7 217.1 44.1 217.6 43.4 218.2C42.7 218.6 42.1 219 41.4 219.1C40.4 219.3 39.1 219.4 37.3 219.4H34.6V226.7H30.8V226.8ZM34.7 210.4V216H36.9C38.5 216 39.5 216 40 215.8C40.6 215.6 41 215.2 41.2 214.8C41.5 214.4 41.6 213.8 41.6 213.2C41.6 212.5 41.5 212 41 211.4C40.6 211 40 210.7 39.3 210.6C38.9 210.5 38 210.4 36.5 210.4H34.7ZM48.1 220.4L52 220C52.2 221.3 52.7 222.3 53.4 222.9C54.1 223.5 55.1 223.8 56.3 223.8C57.5 223.8 58.5 223.6 59.2 223C59.9 222.4 60.1 221.8 60.1 221.1C60.1 220.7 60 220.2 59.8 219.9C59.5 219.6 59 219.3 58.4 219C58 218.9 56.8 218.6 55.2 218.2C53.1 217.6 51.6 217 50.8 216.2C49.6 215.2 49 213.9 49 212.3C49 211.3 49.2 210.3 49.8 209.4C50.5 208.6 51.2 208 52.4 207.5C53.4 206.9 54.7 206.7 56.2 206.7C58.8 206.7 60.5 207.3 61.8 208.4C63.1 209.5 63.8 211 63.8 212.7L59.8 212.9C59.7 211.8 59.4 211.1 58.8 210.7C58.2 210.3 57.4 210 56.2 210C55 210 54.1 210.2 53.5 210.7C53.1 211 52.8 211.5 52.8 211.9C52.8 212.3 53 212.8 53.4 213.1C54 213.5 55.2 214 57.1 214.4C59 214.8 60.4 215.3 61.4 215.8C62.3 216.2 63 216.9 63.5 217.8C64.1 218.6 64.3 219.7 64.3 220.9C64.3 222 64 223 63.4 224C62.7 225 61.8 225.8 60.7 226.2C59.6 226.6 58.1 226.9 56.4 226.9C54 226.9 52.1 226.3 50.7 225.2C49.2 224.2 48.4 222.5 48.1 220.4ZM72.7 226.8V218.6L65.5 207.1H70.2L74.8 214.9L79.4 207.1H84L76.8 218.6V226.8H72.7ZM98.3 219.5L102.2 220.7C101.5 222.8 100.5 224.5 99.2 225.5C97.9 226.5 96.1 227.1 94 227.1C91.4 227.1 89.2 226.2 87.5 224.4C85.8 222.6 85.1 220.2 85.1 217.1C85.1 213.9 85.9 211.3 87.5 209.5C89.3 207.7 91.5 206.7 94.2 206.7C96.6 206.7 98.6 207.5 100.1 208.9C101 209.7 101.7 210.9 102.1 212.5L98.2 213.5C98 212.4 97.4 211.6 96.8 211.1C96 210.5 95.1 210.2 94.1 210.2C92.5 210.2 91.4 210.8 90.5 211.8C89.6 212.8 89.1 214.6 89.1 216.9C89.1 219.3 89.5 221.1 90.4 222.1C91.4 223.2 92.5 223.8 94 223.8C95 223.8 95.9 223.5 96.7 222.8C97.5 222.1 98 221 98.3 219.5ZM105.6 226.8V207.1H109.6V214.9H117.4V207.1H121.4V226.8H117.4V218.2H109.6V226.8H105.6ZM125.3 226.8V207.1H129.3V226.8H125.3ZM145.6 219.5L149.5 220.7C148.9 222.8 147.9 224.5 146.5 225.5C145.2 226.5 143.4 227.1 141.3 227.1C138.7 227.1 136.6 226.2 135 224.4C133.2 222.6 132.4 220.2 132.4 217.1C132.4 213.9 133.3 211.3 135 209.5C136.7 207.7 138.9 206.7 141.7 206.7C144 206.7 146 207.5 147.5 208.9C148.4 209.7 149.1 210.9 149.5 212.5L145.6 213.5C145.4 212.4 144.9 211.6 144.2 211.1C143.4 210.5 142.5 210.2 141.5 210.2C140.1 210.2 138.8 210.8 137.9 211.8C137 212.8 136.6 214.6 136.6 216.9C136.6 219.3 137 221.1 137.9 222.1C138.8 223.2 139.9 223.8 141.3 223.8C142.4 223.8 143.3 223.5 144.1 222.8C144.7 222.1 145.3 221 145.6 219.5Z" fill="#414042"/>
</svg>
