<svg width="178" height="227" viewBox="0 0 178 227" fill="none" xmlns="http://www.w3.org/2000/svg">
<path fill-rule="evenodd" clip-rule="evenodd" d="M89.2 0.400024C137.9 0.400024 177.4 39.9 177.4 88.6C177.4 137.4 137.9 176.9 89.2 176.9C40.4 176.9 0.900024 137.4 0.900024 88.6C0.900024 39.9 40.4 0.400024 89.2 0.400024Z" fill="#A69F97"/>
<path fill-rule="evenodd" clip-rule="evenodd" d="M38.8 133.4C28.3 130.4 27.9 127.4 31.2 119.4C43.9 88.4 62.5 59.3 79 41.7C82.1 38.4 86.5 38.9 90 41.7C95.2 45.6 96.1 52.2 101 58.7C102.8 61.1 115.7 60.7 117.5 63.4C119.1 65.7 120.7 68.3 122.3 71C124.2 74.2 126 77.5 127.6 80.5C131.3 87.1 131.9 89.2 127.9 95.7L106.5 130.7C103.2 136.1 100.3 137.9 93.9 137.9C72.8 138.2 50.5 136.7 38.8 133.4ZM141.7 107.2C143.6 111.2 145.4 115.3 147 119.4C150.3 127.4 150 130.4 139.4 133.4C135.1 134.6 129.3 135.6 122.6 136.3C116.6 137 117.4 133.5 119.9 129.5L131.1 110.8C136.5 102.4 137.4 98 141.7 107.2Z" fill="#8B7E71"/>
<path d="M51.4 226.4V206.7H59.7C61.8 206.7 63.4 206.8 64.4 207.3C65.3 207.6 66.1 208.2 66.6 209.2C67.2 210.1 67.5 211.1 67.5 212.2C67.5 213.8 67.1 215 66.2 215.9C65.3 216.9 64.1 217.5 62.3 217.8C63.2 218.2 63.9 218.8 64.4 219.4C65 220.1 65.7 221.1 66.7 222.6L69 226.5H64.2L61.4 222.2C60.3 220.6 59.6 219.8 59.3 219.3C58.9 219 58.5 218.6 58.1 218.5C57.7 218.3 57 218.3 56.1 218.3H55.3V226.5H51.4V226.4ZM55.4 215.1H58.3C60.2 215.1 61.4 215 61.9 214.8C62.5 214.7 62.8 214.5 63 214C63.3 213.6 63.4 213.1 63.4 212.6C63.4 211.9 63.2 211.4 62.8 210.9C62.5 210.6 62 210.2 61.4 210.1C61.1 210.1 60.1 210.1 58.5 210.1H55.4V215.1ZM70.4 216.6C70.4 214.6 70.7 212.9 71.3 211.6C71.7 210.6 72.4 209.7 73.2 208.9C74 208.1 74.8 207.5 75.8 207.1C77 206.5 78.4 206.3 80 206.3C82.9 206.3 85.2 207.2 86.9 209C88.7 210.8 89.6 213.3 89.6 216.5C89.6 219.7 88.7 222.2 86.9 224C85.2 225.9 82.9 226.8 80 226.8C77.1 226.8 74.8 225.9 73 224.1C71.3 222.3 70.4 219.7 70.4 216.6ZM74.5 216.5C74.5 218.7 75.1 220.4 76.1 221.6C77.1 222.7 78.4 223.3 80 223.3C81.6 223.3 82.9 222.7 83.9 221.6C84.9 220.4 85.5 218.7 85.5 216.5C85.5 214.2 84.9 212.5 83.9 211.4C83 210.3 81.7 209.7 80 209.7C78.3 209.7 77 210.3 76 211.4C75 212.6 74.5 214.3 74.5 216.5ZM105.2 219.2L109 220.4C108.4 222.5 107.4 224.1 106.1 225.2C104.7 226.2 103 226.8 100.9 226.8C98.2 226.8 96.1 225.9 94.4 224.1C92.7 222.3 91.8 219.9 91.8 216.8C91.8 213.5 92.7 211 94.4 209.1C96.1 207.3 98.3 206.4 101.1 206.4C103.5 206.4 105.4 207.1 107 208.5C107.9 209.4 108.6 210.5 109 212.2L105 213.1C104.8 212.1 104.3 211.3 103.6 210.7C102.9 210.1 102 209.8 100.9 209.8C99.5 209.8 98.2 210.4 97.3 211.4C96.4 212.5 96 214.2 96 216.5C96 218.9 96.4 220.7 97.3 221.8C98.2 222.8 99.4 223.4 100.7 223.4C101.8 223.4 102.7 223.1 103.5 222.4C104.3 221.6 104.9 220.6 105.2 219.2ZM112.5 226.4V206.7H116.5V215.4L124.5 206.7H129.8L122.5 214.4L130.3 226.4H125.2L119.8 217.2L116.6 220.4V226.4H112.5Z" fill="#414042"/>
</svg>
