<svg width="177" height="227" viewBox="0 0 177 227" fill="none" xmlns="http://www.w3.org/2000/svg">
<path fill-rule="evenodd" clip-rule="evenodd" d="M88.2 0.400024C136.9 0.400024 176.5 39.9 176.5 88.6C176.5 137.4 136.9 176.9 88.2 176.9C39.5 176.9 0 137.4 0 88.6C0 39.9 39.5 0.400024 88.2 0.400024Z" fill="#533E28"/>
<path fill-rule="evenodd" clip-rule="evenodd" d="M90.2 132.2L126.3 69.3C127.2 67.6 126.1 65.9 124.3 65.9L51.8 66.1C49.6 66.1 48.7 67.7 49.8 69.5L86.3 132.2C87.4 134.2 89 134.2 90.2 132.2ZM75.5 159.1L58.8 149.5C57 148.4 56.1 147.1 56.1 144.9V136C56.1 132.7 57.7 132.2 60.2 133.8L82.7 146.7C85.7 148.7 90.3 148.7 93.3 146.7L115.7 133.8C118.4 132.2 119.9 132.7 119.9 136V144.9C119.9 147 119 148.3 117.2 149.5L100.4 159.1C92.2 164 83.9 164 75.5 159.1ZM155.1 65V84.4C155.1 86.4 154.3 88 152.5 89L144.7 93.4C141.8 95.1 140.7 94 140.7 91V65C140.9 61.3 138.6 57.4 135.4 55.9L113 42.9C110.3 41.5 109.9 39.9 112.8 38.2L120.6 33.6C122.4 32.6 124 32.7 125.8 33.7L142.6 43.4C150.9 48.2 155.1 55.5 155.1 65ZM33.8 43.2L50.5 33.5C52.3 32.5 54.1 32.4 55.7 33.4L63.5 37.8C66.4 39.5 65.9 41.1 63.4 42.6L40.9 55.5C37.7 57.2 35.5 61.2 35.7 64.7V90.5C35.7 93.5 34.5 94.7 31.7 93.1L23.9 88.7C22.1 87.7 21.3 86.1 21.3 84V64.8C21.4 55.2 25.5 48 33.8 43.2Z" fill="#8B7E71"/>
<path d="M45.6 220L49.5 219.7C49.7 220.9 50.2 221.9 50.9 222.5C51.6 223.2 52.6 223.5 53.8 223.5C55 223.5 56 223.2 56.7 222.6C57.4 222 57.6 221.5 57.6 220.7C57.6 220.3 57.5 219.9 57.3 219.6C57 219.3 56.5 218.9 55.9 218.7C55.5 218.5 54.3 218.3 52.7 217.8C50.6 217.2 49.1 216.7 48.3 215.9C47.1 214.8 46.5 213.5 46.5 211.9C46.5 210.9 46.7 210 47.3 209.1C48 208.2 48.7 207.5 49.9 207.1C50.9 206.7 52.2 206.4 53.7 206.4C56.3 206.4 58 207 59.3 208C60.6 209.1 61.3 210.6 61.3 212.3L57.3 212.5C57.2 211.5 56.9 210.7 56.3 210.3C55.7 209.9 54.9 209.6 53.7 209.6C52.6 209.6 51.6 209.9 51 210.4C50.6 210.6 50.3 211.1 50.3 211.6C50.3 212 50.5 212.5 50.9 212.7C51.5 213.1 52.7 213.6 54.6 214C56.5 214.4 57.9 215 58.9 215.4C59.8 215.8 60.5 216.5 61 217.4C61.5 218.3 61.8 219.3 61.8 220.5C61.8 221.6 61.5 222.7 60.9 223.7C60.2 224.6 59.3 225.4 58.2 225.8C57.1 226.4 55.6 226.6 53.9 226.6C51.5 226.6 49.6 226 48.2 224.8C46.7 223.8 45.9 222.2 45.6 220ZM69.4 226.4V210.1H63.6V206.8H79.2V210.1H73.4V226.4H69.4ZM81.7 226.4V206.7H96.3V210H85.7V214.3H95.5V217.6H85.7V222.9H96.6V226.2H81.7V226.4ZM100.1 226.4V206.7H114.7V210H104V214.3H113.9V217.6H104V222.9H115V226.2H100.1V226.4ZM118.4 226.4V206.8H122.4V223H132.3V226.3H118.4V226.4Z" fill="#414042"/>
</svg>
