<svg width="177" height="227" viewBox="0 0 177 227" fill="none" xmlns="http://www.w3.org/2000/svg">
<path fill-rule="evenodd" clip-rule="evenodd" d="M88.7 0.400024C137.5 0.400024 177 39.9 177 88.6C177 137.4 137.5 176.9 88.7 176.9C40 176.9 0.5 137.4 0.5 88.6C0.5 39.9 40 0.400024 88.7 0.400024Z" fill="#1FAFDF"/>
<path fill-rule="evenodd" clip-rule="evenodd" d="M125.2 32.9C108.6 35 91.4 42.1 77.3 52.3C28.3 87.4 44.6 144.6 94.3 138.7C115.3 136.3 127 119.7 126.6 103.2C126.4 94.5 122.9 88 115.6 79.1C102.4 63.3 110.6 45.6 127.1 36.5C131.7 33.8 130.2 32.2 125.2 32.9Z" fill="#C9EBF9"/>
<path fill-rule="evenodd" clip-rule="evenodd" d="M105.2 78.3C108.4 78.3 111 81.5 111 85.5C111 89.6 108.4 92.8 105.2 92.8C102 92.8 99.4 89.6 99.4 85.5C99.4 81.5 101.9 78.3 105.2 78.3Z" fill="white"/>
<path fill-rule="evenodd" clip-rule="evenodd" d="M112.8 93.4C114 93.4 115 94.6 115 96.2C115 97.6 114 98.9 112.8 98.9C111.6 98.9 110.7 97.7 110.7 96.2C110.7 94.6 111.6 93.4 112.8 93.4Z" fill="white"/>
<path d="M45 226.4L40.3 206.7H44.4L47.3 220.2L51 206.7H55.7L59.1001 220.4L62.1001 206.7H66.1001L61.3 226.4H57.1001L53.2 211.6L49.3 226.4H45ZM84.4 226.4H80L78.3 221.8H70.4L68.8 226.4H64.6001L72.3 206.7H76.4L84.4 226.4ZM77.1001 218.6L74.3 211.3L71.6001 218.6H77.1001ZM88.9 226.4V210.1H83V206.8H98.7V210.1H92.8V226.4H88.9ZM101.3 226.4V206.7H115.9V210H105.2V214.3H115.1V217.6H105.2V222.9H116.2V226.2H101.3V226.4ZM119.6 226.4V206.7H127.9C130 206.7 131.5 206.8 132.5 207.3C133.4 207.6 134.2 208.2 134.7 209.2C135.4 210.1 135.6 211.1 135.6 212.2C135.6 213.8 135.2 215 134.3 215.9C133.5 216.9 132.2 217.5 130.4 217.8C131.3 218.2 132.1 218.8 132.6 219.4C133.2 220.1 133.8 221.1 134.8 222.6L137.1 226.5H132.4L129.5 222.2C128.5 220.6 127.8 219.8 127.4 219.3C127.1 219 126.6 218.6 126.2 218.5C125.9 218.3 125.2 218.3 124.2 218.3H123.4V226.5H119.6V226.4ZM123.5 215.1H126.5C128.4 215.1 129.5 215 130.1 214.8C130.5 214.7 130.9 214.5 131.2 214C131.4 213.6 131.5 213.1 131.5 212.6C131.5 211.9 131.4 211.4 131.1 210.9C130.7 210.6 130.2 210.2 129.5 210.1C129.2 210.1 128.3 210.1 126.6 210.1H123.5V215.1Z" fill="#414042"/>
</svg>
